<svg xmlns="http://www.w3.org/2000/svg" viewBox="0 0 1208 467" width="200" height="77">
	<defs>
		<clipPath clipPathUnits="userSpaceOnUse" id="cp1">
			<path d="M0 0L1208 0L1208 467L0 467Z" />
		</clipPath>
	</defs>
	<style>
		tspan { white-space:pre }
		.shp0 { fill: #5e6770 } 
		.shp1 { fill: #c4272b } 
	</style>
	<g id="Page 1" clip-path="url(#cp1)">
		<path id="Path 1" fill-rule="evenodd" class="shp0" d="M487.6 180.53L487.6 164.94C507.39 166.21 523.81 163.68 536.03 155.68C555.82 143.47 562.98 119.46 562.98 97.14C562.98 85.77 561.71 76.51 557.92 67.24C547.4 41.14 524.66 24.71 488.86 24.71C482.12 24.71 474.12 25.55 472.44 25.55L472.44 222.22C472.44 242.43 472.44 259.7 472.86 269.38C473.28 278.65 475.81 279.49 498.13 284.54L510.34 287.07L510.34 301.39L388.21 301.39L388.21 287.07L400.43 284.54C423.17 279.49 425.27 278.65 425.69 269.38C426.11 259.7 426.11 242.43 426.11 222.22L426.11 81.56C426.11 61.35 426.11 44.08 425.69 34.4C425.27 25.13 423.17 24.29 400.43 19.24L388.21 16.71L388.21 2.39L476.65 2.39C513.71 2.39 531.81 4.08 551.19 9.55C589.93 20.08 611.4 50.82 611.4 87.88C611.4 146.84 564.66 193.58 487.6 180.53ZM854.05 76.51L838.89 76.51C836.36 60.93 835.52 52.08 832.99 41.56C829.63 26.82 824.15 23.45 728.56 23.45L728.56 147.68C764.35 147.68 790.46 147.26 801.41 145.57C808.99 144.73 811.94 144.31 813.62 138.84C816.15 129.99 816.99 124.52 819.94 111.88L833.84 111.88L833.84 206.64L819.94 206.64C817.83 196.53 816.99 192.32 813.62 180.1C811.52 172.52 809.83 170.84 801.41 170C792.14 168.73 765.19 168.31 728.56 168.31L728.56 222.22C728.56 242.43 728.56 260.12 728.98 269.8C729.4 279.07 731.51 279.91 754.25 284.54L766.46 287.07L766.46 301.39L644.33 301.39L644.33 287.07L656.54 284.54C678.86 279.49 681.39 278.65 681.81 269.38C682.23 259.7 682.23 242.43 682.23 222.22L682.23 81.56C682.23 61.35 682.23 44.08 681.81 34.4C681.39 25.13 678.44 24.29 650.23 19.24L638.02 16.71L638.02 2.39L855.74 2.39C856.58 23.03 855.74 48.29 854.05 76.51ZM1202.27 303.91C1146.26 306.44 1129.42 298.86 1086.04 247.9L1044.35 198.21C1035.93 188.53 1032.56 184.74 1026.66 180.1L987.08 180.1L987.08 222.22C987.08 242.43 987.08 259.7 987.5 269.38C987.92 278.65 990.45 279.49 1012.77 284.54L1024.98 287.07L1024.98 301.39L902.85 301.39L902.85 287.07L915.07 284.54C937.81 279.49 939.91 278.65 940.33 269.38C940.75 259.7 940.75 242.43 940.75 222.22L940.75 81.56C940.75 61.35 940.75 44.08 940.33 34.4C939.91 25.13 937.81 24.29 915.07 19.24L902.85 16.71L902.85 2.39C902.85 2.39 950.44 3.24 969.81 3.24C986.66 3.24 996.34 2.39 1015.71 2.39C1037.61 2.39 1056.14 4.08 1071.72 8.71C1110.04 18.82 1131.52 50.4 1131.52 87.04C1131.52 126.62 1104.57 158.63 1073.41 167.89C1080.99 172.95 1086.46 177.58 1097.83 190.21L1140.79 236.95C1177.42 276.54 1184.58 283.7 1207.74 289.17L1202.27 303.91ZM1077.2 65.98C1067.09 39.87 1043.51 24.71 1008.13 24.71C1000.13 24.71 989.18 25.55 987.08 25.98L987.08 156.94L1037.61 156.94C1060.77 156.94 1073.41 140.94 1079.3 120.31C1081.83 113.15 1082.67 104.3 1082.67 96.3C1082.67 85.77 1080.99 75.67 1077.2 65.98Z" />
		<path id="Path 2" fill-rule="evenodd" class="shp1" d="M222 298.84L0 298.84L0 61.14C0 29.06 25.94 3.06 57.93 3.06L294.97 3.06L294.97 225.66C294.97 266.08 262.3 298.84 222 298.84ZM51.25 178.06C110.19 152.22 170.28 212.69 205.03 139.33C141.56 155.98 82.53 112.33 51.25 178.06ZM51.25 113.64C125.93 78.31 218.8 156.1 246.07 60.7C165.67 83.46 90.88 23.8 51.25 113.64ZM51.25 234.69C92.09 216.29 133.72 259.35 157.79 207.11C113.82 218.97 72.92 187.89 51.25 234.69Z" />
		<path id="Path 3" fill-rule="evenodd" class="shp0" d="M56.07 427.34C52.11 428.28 51.82 428.64 51.75 430.22C51.68 431.88 51.68 434.76 51.68 438.21L51.68 439.44C51.68 440.15 51.68 443.68 51.97 444.83C46.71 446.99 39.3 448.5 32.53 448.5C25.91 448.5 19.29 446.99 14.4 443.39C8.21 438.79 4.47 431.45 4.47 421.59C4.47 412.16 8.21 405.46 14.11 401.08C18.64 397.62 24.69 395.96 33.11 395.96C40.16 395.96 45.56 396.9 50.96 397.48C51.03 402.01 50.89 406.33 50.53 412.16L47.72 412.16C47.22 408.92 47 407.77 46.57 406.18C45.34 401.58 40.67 399.85 32.46 399.85C25.63 399.85 21.38 401.29 18.43 404.17C14.47 408.05 13.1 413.31 13.1 420.43C13.1 434.18 20.66 444.26 34.33 444.26C37.93 444.26 41.31 443.75 43.83 443.11L43.83 438.21C43.83 434.76 43.83 431.88 43.76 430.22C43.69 428.64 43.4 428.28 39.44 427.34L37.5 426.91L37.5 424.32L58.01 424.32L58.01 426.91L56.07 427.34ZM85.91 419.43C83.1 418.06 80.95 417.56 79.43 417.56C77.35 417.56 75.69 418.42 74.9 419.43L74.9 433.1C74.9 436.84 74.9 440.44 74.97 442.46C75.04 444.04 75.19 444.33 76.77 444.76L79.94 445.63L79.94 447.78L63.17 447.78L63.17 445.7L65.98 444.76C67.49 444.26 67.63 444.11 67.7 442.46C67.78 440.44 67.78 436.84 67.78 433.1L67.78 426.98C67.78 423.53 67.78 420 67.7 418.35C67.63 416.76 67.2 416.26 65.54 415.83L62.45 415.04L62.45 413.45C66.98 411.8 70.87 411.29 74.11 411.29L74.68 411.29L74.68 417.63C76.63 412.59 79.72 410.86 82.75 410.86C85.77 410.86 87.5 412.37 87.5 414.75C87.5 416.19 86.92 417.84 85.91 419.43ZM132.8 445.84C128.27 447.5 124.38 448 121.14 448L120.56 448L120.56 442.17C118.33 446.2 114.23 448.72 108.83 448.72C100.92 448.72 97.25 444.26 97.25 434.47L97.25 426.98C97.25 423.53 97.25 420 97.17 418.35C97.1 416.76 96.67 416.26 95.02 415.83L91.92 415.04L91.92 413.45C96.53 411.8 100.41 411.29 103.65 411.29L104.44 411.29L104.44 430.73C104.44 439.22 105.38 443.25 111.93 443.25C115.67 443.25 118.77 441.81 120.35 440.08L120.35 426.98C120.35 423.53 120.35 420 120.28 418.35C120.21 416.76 119.77 416.26 118.12 415.83L115.02 415.04L115.02 413.45C119.63 411.8 123.44 411.29 126.75 411.29L127.47 411.29L127.47 432.31C127.47 435.76 127.47 439.29 127.55 440.95C127.62 442.53 128.05 443.03 129.71 443.46L132.8 444.26L132.8 445.84ZM166.45 444.76C162.71 447.42 158.68 448.65 153.86 448.65C152.06 448.65 150.26 448.5 148.53 448.14L148.53 451.17C148.53 454.91 148.53 458.51 148.6 460.45C148.68 462.18 148.82 462.32 150.33 462.82L153.36 463.69L153.36 465.85L136.8 465.85L136.8 463.69L139.61 462.82C141.12 462.32 141.26 462.18 141.34 460.45C141.41 458.51 141.41 454.91 141.41 451.17L141.41 426.98C141.41 423.53 141.41 420 141.34 418.35C141.26 416.76 140.83 416.26 139.18 415.83L136.08 415.04L136.08 413.45C140.62 411.8 144.5 411.29 147.74 411.29L148.32 411.29L148.32 416.69C150.62 413.09 154.79 410.93 159.47 410.93C168.4 410.93 174.01 418.2 174.01 427.41C174.01 435.26 171.35 441.23 166.45 444.76ZM155.8 416.04C153 416.04 149.97 417.2 148.53 418.78L148.53 443.25C151.77 444.18 154.07 444.47 156.09 444.47C159.11 444.47 160.98 443.46 162.14 442.53C164.94 440.3 166.53 435.91 166.53 430.51C166.53 421.37 162.57 416.04 155.8 416.04ZM212.01 446.27C210.29 447.64 208.13 448.36 206.25 448.36C202.8 448.36 200.28 446.42 199.63 442.46C197.4 445.84 193.37 448.65 188.62 448.65C183.3 448.65 179.48 445.41 179.48 440.59C179.48 434.76 185.17 429.5 199.13 427.56L199.13 424.75C199.13 417.99 197.4 415.4 192.8 415.4C189.99 415.4 186.39 416.69 181.57 422.02C180.63 420.87 180.13 419.43 180.13 418.35C180.13 416.84 180.78 415.61 182.29 414.39C185.31 411.94 189.77 410.93 194.02 410.93C204.24 410.93 206.04 416.12 206.04 423.89L206.04 433.82C206.04 440.3 206.11 443.54 212.37 445.19L212.01 446.27ZM199.13 430.94C190.06 432.02 186.25 435.55 186.25 438.86C186.25 441.38 188.55 443.39 192.15 443.39C194.6 443.39 197.19 442.17 199.13 440.51L199.13 430.94ZM248.29 427.13L248.29 424.46C251.68 424.68 254.48 424.25 256.57 422.88C259.95 420.79 261.18 416.69 261.18 412.88C261.18 410.93 260.96 409.35 260.31 407.77C258.51 403.3 254.63 400.5 248.51 400.5C247.36 400.5 245.99 400.64 245.7 400.64L245.7 434.25C245.7 437.71 245.7 440.66 245.78 442.31C245.85 443.9 246.28 444.04 250.09 444.9L252.18 445.34L252.18 447.78L231.31 447.78L231.31 445.34L233.4 444.9C237.28 444.04 237.64 443.9 237.71 442.31C237.79 440.66 237.79 437.71 237.79 434.25L237.79 410.21C237.79 406.76 237.79 403.81 237.71 402.15C237.64 400.57 237.28 400.43 233.4 399.56L231.31 399.13L231.31 396.68L246.42 396.68C252.76 396.68 255.85 396.97 259.16 397.91C265.78 399.71 269.45 404.96 269.45 411.29C269.45 421.37 261.46 429.36 248.29 427.13ZM292.22 448.43C280.85 448.43 274.73 441.3 274.73 430.22C274.73 423.17 277.1 417.77 282.36 414.24C285.45 412.16 289.41 410.93 293.51 410.93C300.35 410.93 305.03 413.52 308.05 418.56C309.71 421.3 310.43 425.04 310.43 428.71C310.43 441.38 302.15 448.43 292.22 448.43ZM300.21 419.35C298.19 416.19 295.6 414.82 291.79 414.82C284.16 414.82 282.36 421.94 282.36 428.85C282.36 437.64 285.96 444.61 293.23 444.61C299.34 444.61 302.65 439.08 302.65 430.87C302.65 425.62 301.86 422.02 300.21 419.35ZM331.21 447.78L314.8 447.78L314.8 445.63L317.67 444.76C319.19 444.26 319.33 444.11 319.4 442.39C319.47 440.44 319.47 436.77 319.47 433.03L319.47 407.77C319.47 404.31 319.47 400.79 319.4 399.13C319.33 397.55 318.9 397.04 317.24 396.61L314.15 395.82L314.15 394.24C318.68 392.65 322.57 392.08 325.81 392.08L326.6 392.08L326.6 433.03C326.6 436.77 326.6 440.44 326.67 442.39C326.74 444.11 326.81 444.26 328.4 444.76L331.21 445.63L331.21 447.78ZM348.52 448.5C344.85 448.5 341.1 447.85 337.51 447.35C337 443.68 337.08 439.94 337.51 437.13L339.95 437.13L340.46 439.51C340.89 442.17 341.32 443.25 343.05 443.97C344.42 444.61 346.65 445.05 348.95 445.05C353.48 445.05 355.79 442.6 355.79 439.72C355.79 437.35 354.28 435.33 348.52 432.96L346.29 432.02C340.24 429.58 338.15 425.9 338.15 421.73C338.15 416.19 342.76 411.08 351.33 411.08C354.78 411.08 356.94 411.58 360.68 411.73C361.04 415.18 361.11 418.35 360.82 421.66L358.59 421.66L358.09 419.93C357.23 416.91 356.8 415.61 355.21 414.96C353.77 414.46 352.26 414.24 350.89 414.24C346.5 414.24 344.42 416.48 344.42 419.07C344.42 421.3 345.57 423.53 351.11 425.76L353.41 426.7C359.24 429 362.62 432.31 362.62 437.06C362.62 442.6 358.09 448.5 348.52 448.5ZM404.89 448.36C394.89 448.43 393.3 447.28 388.77 441.16L381.57 432.02C380.49 430.58 379.84 430.01 379.2 429.5C383.08 426.63 387.9 421.37 391.57 417.2C392.73 416.04 393.01 414.96 389.7 414.24L387.76 413.81L387.76 411.58L404.46 411.58L404.46 413.74L401.58 414.46C399.93 414.89 399.49 415.04 396.69 417.48L388.19 425.04C387.26 425.9 386.54 426.48 385.96 426.84C386.9 427.56 387.83 428.49 389.92 431.16L399.42 442.46C401 444.33 402.08 445.19 405.61 446.13L404.89 448.36ZM367.32 447.78L367.32 445.63L370.2 444.76C371.71 444.26 371.86 444.11 371.93 442.39C372 440.44 372 436.84 372 433.1L372 407.77C372 404.31 372 400.79 371.93 399.13C371.86 397.55 371.42 397.04 369.77 396.61L366.67 395.82L366.67 394.24C371.21 392.65 375.09 392.08 378.33 392.08L379.12 392.08L379.12 433.03C379.12 436.77 379.12 440.37 379.2 442.31C379.27 444.11 379.41 444.18 380.85 444.69L383.87 445.63L383.87 447.78L367.32 447.78ZM418.22 402.94C415.12 402.94 413.69 400.93 413.69 398.27C413.69 395.24 415.7 393.59 418.22 393.59C421.24 393.59 422.82 395.68 422.82 398.27C422.82 401.29 420.67 402.94 418.22 402.94ZM410.66 447.78L410.66 445.63L413.47 444.76C415.05 444.26 415.12 444.11 415.2 442.39C415.27 440.44 415.27 436.77 415.27 433.03L415.27 426.98C415.27 423.53 415.27 420 415.2 418.35C415.12 416.76 414.69 416.26 413.04 415.83L409.94 415.04L409.94 413.45C414.55 411.8 418.44 411.29 421.68 411.29L422.39 411.29L422.39 433.03C422.39 436.77 422.39 440.44 422.46 442.39C422.54 444.11 422.68 444.26 424.19 444.76L427 445.63L427 447.78L410.66 447.78ZM448.47 448.5C437.39 448.5 431.41 440.3 431.41 429.86C431.41 423.6 433.29 418.2 437.68 414.53C440.56 412.09 444.15 410.86 448.26 410.86C456.6 410.86 462.29 416.48 461.93 427.41L438.54 427.41C438.54 435.12 441.56 439.44 445.52 441.52C447.39 442.6 449.55 443.03 452.07 443.03C455.52 443.03 459.63 441.81 462.79 439.87L462.44 442.31C459.7 445.7 454.3 448.5 448.47 448.5ZM446.53 414.46C444.51 414.46 442.79 415.18 441.56 416.33C439.84 417.91 438.83 420.36 438.54 424.39L454.3 423.53C454.01 417.77 451.21 414.46 446.53 414.46ZM479.61 467C472.99 467 465.36 464.12 465.36 457.28C465.36 453.54 468.53 449.87 474.79 448.65C472.99 447.57 471.77 445.84 471.77 443.32C471.77 441.09 473.21 438.64 476.09 437.2C471.48 435.26 468.89 430.94 468.89 425.11C468.89 416.55 475.29 410.93 483.21 410.93C486.59 410.93 489.18 411.8 491.49 413.24L502.57 413.24L502.28 417.27L494.58 417.05C495.95 418.92 496.96 421.94 496.96 424.68C496.96 432.38 491.27 438.28 482.06 438.28C480.55 438.28 479.25 438.14 477.96 437.78C477.38 438.43 477.16 439.29 477.16 439.94C477.16 443.39 481.48 443.97 484.65 444.04L491.06 444.26C499.19 444.47 501.35 448.36 501.35 451.96C501.35 458.29 493.07 467 479.61 467ZM477.16 449.73C472.92 451.02 471.19 453.61 471.19 456.13C471.19 460.52 476.45 462.9 482.49 462.9C491.2 462.9 495.37 458.15 495.37 454.91C495.37 452.89 494.15 450.95 488.9 450.81L482.71 450.59C480.91 450.52 478.89 450.3 477.16 449.73ZM483 414.24C478.75 414.24 475.94 417.84 475.94 424.11C475.94 431.59 478.17 434.97 482.56 434.97C487.1 434.97 489.83 430.73 489.83 425.26C489.83 417.48 487.03 414.24 483 414.24ZM523.7 448.43C512.33 448.43 506.21 441.3 506.21 430.22C506.21 423.17 508.59 417.77 513.84 414.24C516.94 412.16 520.89 410.93 525 410.93C531.83 410.93 536.51 413.52 539.53 418.56C541.19 421.3 541.91 425.04 541.91 428.71C541.91 441.38 533.63 448.43 523.7 448.43ZM531.69 419.35C529.68 416.19 527.08 414.82 523.27 414.82C515.64 414.82 513.84 421.94 513.84 428.85C513.84 437.64 517.44 444.61 524.71 444.61C530.83 444.61 534.14 439.08 534.14 430.87C534.14 425.62 533.35 422.02 531.69 419.35ZM599.14 409.35L596.55 409.35C596.11 406.69 595.97 405.18 595.54 403.38C594.96 400.86 594.03 400.28 577.69 400.28L577.69 421.51C583.81 421.51 588.27 421.44 590.14 421.15C591.44 421.01 591.94 420.94 592.23 420C592.66 418.49 592.8 417.56 593.31 415.4L595.68 415.4L595.68 431.59L593.31 431.59C592.95 429.86 592.8 429.14 592.23 427.06C591.87 425.76 591.58 425.47 590.14 425.33C588.56 425.11 583.95 425.04 577.69 425.04L577.69 434.25C577.69 437.71 577.69 440.73 577.76 442.39C577.83 443.97 578.19 444.11 582.08 444.9L584.17 445.34L584.17 447.78L563.3 447.78L563.3 445.34L565.38 444.9C569.2 444.04 569.63 443.9 569.7 442.31C569.77 440.66 569.77 437.71 569.77 434.25L569.77 410.21C569.77 406.76 569.77 403.81 569.7 402.15C569.63 400.57 569.12 400.43 564.3 399.56L562.21 399.13L562.21 396.68L599.42 396.68C599.57 400.21 599.42 404.53 599.14 409.35ZM645.96 445.84C641.43 447.5 637.54 448 634.3 448L633.72 448L633.72 442.17C631.5 446.2 627.39 448.72 621.99 448.72C614.08 448.72 610.41 444.26 610.41 434.47L610.41 426.98C610.41 423.53 610.41 420 610.34 418.35C610.26 416.76 609.83 416.26 608.18 415.83L605.08 415.04L605.08 413.45C609.69 411.8 613.57 411.29 616.81 411.29L617.6 411.29L617.6 430.73C617.6 439.22 618.54 443.25 625.09 443.25C628.83 443.25 631.93 441.81 633.51 440.08L633.51 426.98C633.51 423.53 633.51 420 633.44 418.35C633.36 416.76 632.93 416.26 631.28 415.83L628.18 415.04L628.18 413.45C632.79 411.8 636.6 411.29 639.91 411.29L640.64 411.29L640.64 432.31C640.64 435.76 640.64 439.29 640.71 440.95C640.78 442.53 641.21 443.03 642.87 443.46L645.96 444.26L645.96 445.84ZM675.33 447.78L675.33 445.63L678.35 444.69C679.79 444.18 679.93 444.11 680 442.24C680.08 440.3 680.08 436.77 680.08 433.03L680.08 428.78C680.08 420.22 679.14 416.19 672.52 416.19C668.77 416.19 665.75 417.7 664.1 419.43L664.1 433.03C664.1 436.77 664.1 440.37 664.17 442.31C664.24 444.11 664.39 444.18 665.83 444.69L668.92 445.63L668.92 447.78L652.37 447.78L652.37 445.63L655.18 444.76C656.69 444.26 656.83 444.11 656.9 442.39C656.97 440.44 656.97 436.84 656.97 433.1L656.97 426.98C656.97 423.53 656.97 420 656.9 418.35C656.83 416.76 656.4 416.26 654.74 415.83L651.65 415.04L651.65 413.45C656.18 411.8 660.07 411.29 663.38 411.29L663.88 411.29L663.88 417.2C666.04 413.31 670.29 410.79 675.69 410.79C683.68 410.79 687.27 415.18 687.27 425.04L687.27 433.03C687.27 436.77 687.27 440.44 687.35 442.39C687.42 444.11 687.56 444.26 689.07 444.76L691.88 445.63L691.88 447.78L675.33 447.78ZM734.18 446.06C729.64 447.64 725.76 448.21 722.45 448.21L721.94 448.21L721.94 442.75C719.78 446.2 715.39 448.58 710.71 448.58C702.22 448.58 696.32 441.3 696.32 431.01C696.32 423.96 698.7 418.13 703.59 414.6C707.26 411.94 711 410.86 716.4 410.86C718.13 410.86 719.93 411.08 721.73 411.36L721.73 407.77C721.73 404.31 721.73 400.79 721.65 399.13C721.58 397.55 721.15 397.04 719.5 396.61L716.4 395.82L716.4 394.24C720.94 392.65 724.82 392.08 728.13 392.08L728.85 392.08L728.85 432.45C728.85 435.98 728.85 439.44 728.93 441.16C729 442.75 729.43 443.25 731.08 443.68L734.18 444.4L734.18 446.06ZM713.81 415.04C711 415.04 709.06 415.9 707.84 416.91C705.1 419.07 703.81 423.53 703.81 428.49C703.81 438.14 708.2 443.46 714.46 443.46C717.26 443.46 720.29 442.31 721.73 440.73L721.73 416.33C719.5 415.61 716.62 415.04 713.81 415.04ZM777.38 445.84C772.85 447.5 768.96 448 765.72 448L765.15 448L765.15 442.17C762.92 446.2 758.81 448.72 753.41 448.72C745.5 448.72 741.83 444.26 741.83 434.47L741.83 426.98C741.83 423.53 741.83 420 741.76 418.35C741.69 416.76 741.25 416.26 739.6 415.83L736.5 415.04L736.5 413.45C741.11 411.8 744.99 411.29 748.23 411.29L749.03 411.29L749.03 430.73C749.03 439.22 749.96 443.25 756.51 443.25C760.25 443.25 763.35 441.81 764.93 440.08L764.93 426.98C764.93 423.53 764.93 420 764.86 418.35C764.79 416.76 764.35 416.26 762.7 415.83L759.6 415.04L759.6 413.45C764.21 411.8 768.03 411.29 771.34 411.29L772.06 411.29L772.06 432.31C772.06 435.76 772.06 439.29 772.13 440.95C772.2 442.53 772.63 443.03 774.29 443.46L777.38 444.26L777.38 445.84ZM795.02 448.5C791.35 448.5 787.61 447.85 784.01 447.35C783.51 443.68 783.58 439.94 784.01 437.13L786.46 437.13L786.96 439.51C787.4 442.17 787.83 443.25 789.55 443.97C790.92 444.61 793.15 445.05 795.46 445.05C799.99 445.05 802.29 442.6 802.29 439.72C802.29 437.35 800.78 435.33 795.02 432.96L792.79 432.02C786.75 429.58 784.66 425.9 784.66 421.73C784.66 416.19 789.27 411.08 797.83 411.08C801.29 411.08 803.45 411.58 807.19 411.73C807.55 415.18 807.62 418.35 807.33 421.66L805.1 421.66L804.6 419.93C803.73 416.91 803.3 415.61 801.72 414.96C800.28 414.46 798.77 414.24 797.4 414.24C793.01 414.24 790.92 416.48 790.92 419.07C790.92 421.3 792.07 423.53 797.61 425.76L799.92 426.7C805.75 429 809.13 432.31 809.13 437.06C809.13 442.6 804.6 448.5 795.02 448.5ZM843.53 411.73C843.53 413.31 843.03 414.82 841.01 418.06L824.17 444.4L837.48 444.04C840.36 443.97 841.51 442.39 842.16 438.64L842.66 435.69L844.9 435.69C845.54 440.01 845.62 443.82 845.4 447.78L815.24 447.78L815.24 447.57C815.24 445.84 815.6 444.76 817.98 440.95L834.89 414.89L823.02 415.18C820.28 415.25 819.13 416.48 818.56 419.86L817.98 423.24L815.82 423.24C815.32 419.64 815.1 415.11 815.39 411.36C815.39 411.36 819.2 411.58 822.95 411.58L843.53 411.58L843.53 411.73ZM891.06 445.84C886.52 447.5 882.64 448 879.4 448L878.82 448L878.82 442.17C876.59 446.2 872.49 448.72 867.09 448.72C859.17 448.72 855.5 444.26 855.5 434.47L855.5 426.98C855.5 423.53 855.5 420 855.43 418.35C855.36 416.76 854.93 416.26 853.27 415.83L850.18 415.04L850.18 413.45C854.79 411.8 858.67 411.29 861.91 411.29L862.7 411.29L862.7 430.73C862.7 439.22 863.64 443.25 870.19 443.25C873.93 443.25 877.02 441.81 878.61 440.08L878.61 426.98C878.61 423.53 878.61 420 878.54 418.35C878.46 416.76 878.03 416.26 876.38 415.83L873.28 415.04L873.28 413.45C877.89 411.8 881.7 411.29 885.01 411.29L885.73 411.29L885.73 432.31C885.73 435.76 885.73 439.29 885.8 440.95C885.88 442.53 886.31 443.03 887.96 443.46L891.06 444.26L891.06 445.84ZM963.11 448.21C953.54 448.65 950.66 447.35 943.25 438.64L936.12 430.15C934.68 428.49 934.11 427.85 933.1 427.06L926.33 427.06L926.33 434.25C926.33 437.71 926.33 440.66 926.41 442.31C926.48 443.9 926.91 444.04 930.72 444.9L932.81 445.34L932.81 447.78L911.94 447.78L911.94 445.34L914.03 444.9C917.91 444.04 918.27 443.9 918.34 442.31C918.42 440.66 918.42 437.71 918.42 434.25L918.42 410.21C918.42 406.76 918.42 403.81 918.34 402.15C918.27 400.57 917.91 400.43 914.03 399.56L911.94 399.13L911.94 396.68C911.94 396.68 920.07 396.83 923.38 396.83C926.26 396.83 927.92 396.68 931.23 396.68C934.97 396.68 938.14 396.97 940.8 397.76C947.35 399.49 951.02 404.89 951.02 411.15C951.02 417.91 946.41 423.39 941.09 424.97C942.39 425.83 943.32 426.63 945.26 428.78L952.6 436.77C958.87 443.54 960.09 444.76 964.05 445.7L963.11 448.21ZM941.74 407.55C940.01 403.09 935.98 400.5 929.93 400.5C928.57 400.5 926.69 400.64 926.33 400.71L926.33 423.1L934.97 423.1C938.93 423.1 941.09 420.36 942.1 416.84C942.53 415.61 942.67 414.1 942.67 412.73C942.67 410.93 942.39 409.21 941.74 407.55ZM983.78 448.43C972.41 448.43 966.29 441.3 966.29 430.22C966.29 423.17 968.66 417.77 973.92 414.24C977.01 412.16 980.97 410.93 985.07 410.93C991.91 410.93 996.59 413.52 999.61 418.56C1001.27 421.3 1001.99 425.04 1001.99 428.71C1001.99 441.38 993.71 448.43 983.78 448.43ZM991.77 419.35C989.75 416.19 987.16 414.82 983.35 414.82C975.72 414.82 973.92 421.94 973.92 428.85C973.92 437.64 977.52 444.61 984.79 444.61C990.9 444.61 994.21 439.08 994.21 430.87C994.21 425.62 993.42 422.02 991.77 419.35ZM1036.12 411.73C1036.12 413.31 1035.62 414.82 1033.61 418.06L1016.76 444.4L1030.08 444.04C1032.96 443.97 1034.11 442.39 1034.76 438.64L1035.26 435.69L1037.49 435.69C1038.14 440.01 1038.21 443.82 1037.99 447.78L1007.84 447.78L1007.84 447.57C1007.84 445.84 1008.2 444.76 1010.57 440.95L1027.49 414.89L1015.61 415.18C1012.88 415.25 1011.73 416.48 1011.15 419.86L1010.57 423.24L1008.41 423.24C1007.91 419.64 1007.7 415.11 1007.98 411.36C1007.98 411.36 1011.8 411.58 1015.54 411.58L1036.12 411.58L1036.12 411.73ZM1100.18 414.46C1099.02 414.75 1098.45 415.04 1097.44 417.48C1094.78 424.32 1090.03 437.49 1087.51 443.61C1086 447.14 1085.28 448.14 1081.68 449.01C1081.39 447.5 1081.1 446.56 1079.95 443.61L1072.11 423.46L1064.48 444.04C1063.25 447.21 1062.61 448 1059.01 449.01C1058.51 447.35 1058.36 446.56 1057.06 443.39L1045.91 416.48C1045.41 415.32 1045.26 414.75 1043.97 414.39L1041.66 413.74L1041.66 411.58L1059.08 411.58L1059.08 413.81L1055.63 414.6C1053.97 414.96 1053.61 415.47 1054.11 416.91L1062.97 439.51L1071.67 411.8L1074.7 411.8L1085.78 439.65L1092.19 417.84C1092.69 416.19 1092.33 415.47 1090.39 414.89L1086.65 413.74L1086.65 411.58L1102.7 411.58L1102.7 413.74L1100.18 414.46ZM1121.72 448.43C1110.35 448.43 1104.23 441.3 1104.23 430.22C1104.23 423.17 1106.61 417.77 1111.86 414.24C1114.96 412.16 1118.91 410.93 1123.02 410.93C1129.85 410.93 1134.53 413.52 1137.55 418.56C1139.21 421.3 1139.93 425.04 1139.93 428.71C1139.93 441.38 1131.65 448.43 1121.72 448.43ZM1129.71 419.35C1127.7 416.19 1125.1 414.82 1121.29 414.82C1113.66 414.82 1111.86 421.94 1111.86 428.85C1111.86 437.64 1115.46 444.61 1122.73 444.61C1128.85 444.61 1132.16 439.08 1132.16 430.87C1132.16 425.62 1131.36 422.02 1129.71 419.35ZM1152.03 402.94C1148.94 402.94 1147.43 400.93 1147.43 398.27C1147.43 395.24 1149.51 393.59 1152.03 393.59C1155.06 393.59 1156.57 395.68 1156.57 398.27C1156.57 401.29 1154.48 402.94 1152.03 402.94ZM1156.42 442.24C1156.42 454.26 1151.39 460.66 1142.25 465.92L1140.74 464.05C1147.72 457.71 1149.3 452.1 1149.3 441.09L1149.3 426.98C1149.3 423.53 1149.3 420 1149.23 418.35C1149.16 416.76 1148.73 416.26 1147.07 415.83L1143.97 415.04L1143.97 413.45C1148.58 411.8 1152.47 411.29 1155.71 411.29L1156.42 411.29L1156.42 442.24ZM1204.46 445.84C1199.93 447.5 1196.04 448 1192.8 448L1192.23 448L1192.23 442.17C1190 446.2 1185.89 448.72 1180.5 448.72C1172.58 448.72 1168.91 444.26 1168.91 434.47L1168.91 426.98C1168.91 423.53 1168.91 420 1168.84 418.35C1168.77 416.76 1168.34 416.26 1166.68 415.83L1163.58 415.04L1163.58 413.45C1168.19 411.8 1172.08 411.29 1175.31 411.29L1176.11 411.29L1176.11 430.73C1176.11 439.22 1177.04 443.25 1183.59 443.25C1187.34 443.25 1190.43 441.81 1192.01 440.08L1192.01 426.98C1192.01 423.53 1192.01 420 1191.94 418.35C1191.87 416.76 1191.44 416.26 1189.78 415.83L1186.69 415.04L1186.69 413.45C1191.29 411.8 1195.11 411.29 1198.42 411.29L1199.14 411.29L1199.14 432.31C1199.14 435.76 1199.14 439.29 1199.21 440.95C1199.28 442.53 1199.71 443.03 1201.37 443.46L1204.46 444.26L1204.46 445.84Z" />
	</g>
</svg>